<?xml version="1.0"?>
<svg xmlns="http://www.w3.org/2000/svg" xmlns:xlink="http://www.w3.org/1999/xlink" xmlns:svgjs="http://svgjs.com/svgjs" version="1.1" width="512" height="512" x="0" y="0" viewBox="0 0 512 512" style="enable-background:new 0 0 512 512" xml:space="preserve" class=""><g><g xmlns="http://www.w3.org/2000/svg"><path d="m512 145v-34c0-16.262-14.196-30-31-30h-114c-16.542 0-30 13.458-30 30v34z" fill="#ffffff" data-original="#000000" style="" class=""/><path d="m337 175v226c0 16.542 13.458 30 30 30h114c16.804 0 31-13.738 31-30v-226zm91.36 191.35c-7.436 2.216-15.909-1.397-18.71-9.99-2.249-7.541 1.534-16.011 10-18.71 8.201-2.494 17.18 2.403 19.06 11.42 1.357 7.25-2.368 14.679-10.35 17.28zm0-64c-7.43 2.214-15.909-1.396-18.71-9.99-2.249-7.541 1.534-16.011 10-18.71 8.201-2.494 17.18 2.403 19.06 11.42 1.357 7.25-2.368 14.679-10.35 17.28z" fill="#ffffff" data-original="#000000" style="" class=""/><path d="m273 81h-243c-16.54 0-30 13.46-30 30v203c0 16.54 13.46 30 30 30h243c16.54 0 30-13.46 30-30v-203c0-16.54-13.46-30-30-30z" fill="#ffffff" data-original="#000000" style="" class=""/><path d="m232 401h-33v-27h-94v27h-33c-8.28 0-15 6.72-15 15s6.72 15 15 15h160c8.28 0 15-6.72 15-15s-6.72-15-15-15z" fill="#ffffff" data-original="#000000" style="" class=""/></g></g></svg>
