<?xml version="1.0"?>
<svg xmlns="http://www.w3.org/2000/svg" xmlns:xlink="http://www.w3.org/1999/xlink" xmlns:svgjs="http://svgjs.com/svgjs" version="1.1" width="512" height="512" x="0" y="0" viewBox="0 0 433.664 433.664" style="enable-background:new 0 0 512 512" xml:space="preserve" class=""><g>
<g xmlns="http://www.w3.org/2000/svg">
	<g>
		<g>
			<path d="M258.048,37.658h-82.944c-8.483,0-15.36,6.877-15.36,15.36v327.526c0,8.483,6.877,15.36,15.36,15.36h82.944     c8.483,0,15.36-6.877,15.36-15.36V53.018C273.408,44.534,266.531,37.658,258.048,37.658z" fill="#ffffff" data-original="#000000" style=""/>
			<path d="M418.304,228.634H335.36c-8.483,0-15.36,6.877-15.36,15.36v136.653c0,8.483,6.877,15.36,15.36,15.36h82.944     c8.483,0,15.36-6.877,15.36-15.36V243.994C433.664,235.51,426.787,228.634,418.304,228.634z" fill="#ffffff" data-original="#000000" style=""/>
			<path d="M98.304,160.026H15.36c-8.483,0-15.36,6.877-15.36,15.36v205.056c0,8.483,6.877,15.36,15.36,15.36h82.944     c8.483,0,15.36-6.877,15.36-15.36V175.386C113.664,166.903,106.787,160.026,98.304,160.026z" fill="#ffffff" data-original="#000000" style=""/>
		</g>
	</g>
</g>
<g xmlns="http://www.w3.org/2000/svg">
</g>
<g xmlns="http://www.w3.org/2000/svg">
</g>
<g xmlns="http://www.w3.org/2000/svg">
</g>
<g xmlns="http://www.w3.org/2000/svg">
</g>
<g xmlns="http://www.w3.org/2000/svg">
</g>
<g xmlns="http://www.w3.org/2000/svg">
</g>
<g xmlns="http://www.w3.org/2000/svg">
</g>
<g xmlns="http://www.w3.org/2000/svg">
</g>
<g xmlns="http://www.w3.org/2000/svg">
</g>
<g xmlns="http://www.w3.org/2000/svg">
</g>
<g xmlns="http://www.w3.org/2000/svg">
</g>
<g xmlns="http://www.w3.org/2000/svg">
</g>
<g xmlns="http://www.w3.org/2000/svg">
</g>
<g xmlns="http://www.w3.org/2000/svg">
</g>
<g xmlns="http://www.w3.org/2000/svg">
</g>
</g></svg>
